<svg xmlns="http://www.w3.org/2000/svg" width="24" height="24" viewBox="0 0 24 24"><path d="M21.5 6.7c-1-1.7-2.3-3-4-4-1.7-1-3.5-1.5-5.5-1.5s-3.8.5-5.5 1.5c-1.7 1-3 2.3-4 4-1 1.7-1.5 3.6-1.5 5.6 0 2.4.7 4.6 2.1 6.5 1.4 1.9 3.2 3.2 5.4 4 .3 0 .4 0 .6-.1.1-.1.2-.3.2-.4v-2.1l-.3.1c-.2 0-.5.1-.8.1-.3 0-.7 0-1-.1-.3-.1-.7-.2-1-.4-.3-.2-.5-.5-.6-.9l-.1-.3c-.2-.4-.3-.7-.5-.9-.2-.3-.4-.4-.6-.5l-.1-.1c-.1 0-.1-.1-.2-.2s-.1-.2-.2-.2c0-.1 0-.1.1-.2.1 0 .2-.1.4-.1h.3c.2 0 .4.2.7.3.3.2.5.4.7.7.2.4.5.7.8.9.3.2.6.3.9.3.3 0 .6 0 .8-.1.2 0 .4-.1.6-.2.1-.6.3-1.1.7-1.5-.5-.1-1-.1-1.5-.3-.4-.1-.9-.3-1.3-.6-.5-.3-.8-.6-1.2-1-.3-.4-.6-.9-.8-1.5 0-.3-.1-1-.1-1.8 0-1.2.4-2.1 1.1-3-.3-.8-.3-1.8.1-2.9.3-.1.7 0 1.2.2.6.2 1 .4 1.2.6.3.1.5.2.6.4.9-.2 1.8-.4 2.7-.4.9 0 1.9.1 2.8.4l.5-.3c.4-.2.8-.4 1.3-.6.5-.2.9-.2 1.2-.2.4 1.1.5 2.1.1 2.9.8.8 1.1 1.8 1.1 3 0 .8-.1 1.5-.3 2.2-.2.6-.4 1.1-.8 1.5-.3.4-.7.7-1.2 1-.5.3-.9.4-1.3.6-.3-.1-.8 0-1.3 0 .5.4.7 1.1.7 2v3c0 .2.1.3.2.4.1.1.3.1.6.1 2.2-.7 4-2.1 5.4-4 1.4-1.9 2.1-4.1 2.1-6.5 0-1.8-.5-3.7-1.5-5.4z"/></svg>