<?xml version="1.0" encoding="UTF-8"?>
<svg width="152px" height="46px" viewBox="0 0 152 46" version="1.1" xmlns="http://www.w3.org/2000/svg" xmlns:xlink="http://www.w3.org/1999/xlink">
    <!-- Generator: Sketch 47.1 (45422) - http://www.bohemiancoding.com/sketch -->
    <title>amzn</title>
    <desc>Created with Sketch.</desc>
    <defs></defs>
    <g id="index" stroke="none" stroke-width="1" fill="none" fill-rule="evenodd">
        <g transform="translate(-1058.000000, -2553.000000)" id="amzn" fill="#434054">
            <g transform="translate(1058.000000, 2553.000000)">
                <path d="M93.3535591,35.7635699 C84.5883149,42.4386197 71.8836285,46 60.9451303,46 C45.6075909,46 31.7998698,40.1389851 21.353795,30.3909748 C20.5330805,29.6244257 21.2684378,28.5797575 22.2533002,29.1767096 C33.5266511,35.9535124 47.465695,40.0304476 61.864335,40.0304476 C71.5750398,40.0304476 82.2574792,37.9546671 92.0798074,33.6470934 C93.5636626,32.9958661 94.8045841,34.6510629 93.3535591,35.7635699" id="path8"></path>
                <path d="M97.9539748,32.0128745 C96.8381799,30.5601112 90.550372,31.3264782 87.7280783,31.6663452 C86.8682597,31.7729702 86.7369944,31.0132681 87.5114801,30.4668109 C92.5194139,26.8882151 100.736888,27.9211433 101.695156,29.1206726 C102.653418,30.3268692 101.445744,38.69026 96.7397284,42.6820235 C96.0177468,43.2951165 95.3285816,42.9685818 95.6501955,42.1555633 C96.7069121,39.4766139 99.0763291,33.4723027 97.9539748,32.0128745" id="path10"></path>
                <path d="M87.9002493,5.28371519 L87.9002493,1.86460252 C87.9002493,1.34715067 88.3063767,1 88.793729,1 L104.612393,1 C105.120057,1 105.526184,1.35370148 105.526184,1.86460252 L105.526184,4.7924641 C105.51942,5.28371519 105.092981,5.92561752 104.334873,6.94087127 L96.1378673,18.2658671 C99.1838265,18.1938206 102.399003,18.6326677 105.160669,20.139175 C105.783398,20.4797749 105.952618,20.9775768 106,21.4688329 L106,25.1171965 C106,25.6149984 105.43142,26.1979459 104.835767,25.8966485 C99.9690029,23.4272864 93.5048077,23.1587355 88.123618,25.9228492 C87.5753469,26.2110501 87,25.6346484 87,25.1368465 L87,21.6718831 C87,21.1151314 87.0067644,20.1653733 87.5821113,19.3204207 L97.0787291,6.1417694 L88.8140353,6.1417694 C88.3063767,6.1417694 87.9002493,5.79462122 87.9002493,5.28371519" id="path12"></path>
                <path d="M31.5996441,26 L26.8486338,26 C26.3942512,25.9673238 26.0334122,25.6339902 26,25.2091498 L26,1.3594813 C26,0.882356991 26.4076121,0.503268751 26.9154558,0.503268751 L31.3457223,0.503268751 C31.8067955,0.522863997 32.1743098,0.869281028 32.2077246,1.30065317 L32.2077246,4.41830424 L32.2945929,4.41830424 C33.4506046,1.40522847 35.6223011,0 38.5490881,0 C41.5226453,0 43.3802836,1.40522847 44.7167148,4.41830424 C45.8660461,1.40522847 48.478767,0 51.2785929,0 C53.2698751,0 55.4482571,0.803921159 56.7780054,2.60784308 C58.2814902,4.61437886 57.9741098,7.52941109 57.9741098,10.0849703 L57.9674294,25.1372582 C57.9674294,25.6143825 57.5598173,26 57.0519736,26 L52.3076411,26 C51.8332122,25.9673238 51.4523294,25.5947748 51.4523294,25.1372582 L51.4523294,12.4967337 C51.4523294,11.4901987 51.5458756,8.98039421 51.3186855,8.0261431 C50.9645321,6.42484001 49.902069,5.97385517 48.5255426,5.97385517 C47.3762113,5.97385517 46.173424,6.72548993 45.6856266,7.92810704 C45.1978292,9.13072166 45.2446048,11.1437892 45.2446048,12.4967337 L45.2446048,25.1372582 C45.2446048,25.6143825 44.8369928,26 44.3291491,26 L39.5848218,26 C39.1037074,25.9673238 38.729505,25.5947748 38.729505,25.1372582 L38.7228246,12.4967337 C38.7228246,9.83660426 39.1705242,5.92156877 35.7960402,5.92156877 C32.381456,5.92156877 32.5150999,9.73856071 32.5150999,12.4967337 L32.5150999,25.1372582 C32.5150999,25.6143825 32.1074879,26 31.5996441,26" id="path14"></path>
                <path d="M118.415379,2.88808399e-14 C125.283015,2.88808399e-14 129,6.0340406 129,13.7064648 C129,21.1191421 124.892434,27 118.415379,27 C111.671422,27 108,20.9659594 108,13.4467205 C108,5.88085789 111.716989,0 118.415379,0 M118.454433,4.96176927 C115.043403,4.96176927 114.828582,9.7170687 114.828582,12.680812 C114.828582,15.6512112 114.783014,21.9916147 118.415379,21.9916147 C122.002173,21.9916147 122.171423,16.8766703 122.171423,13.7597417 C122.171423,11.7084388 122.086798,9.25752566 121.481401,7.31277669 C120.960632,5.62111871 119.925608,4.96176927 118.454433,4.96176927" id="path16"></path>
                <path d="M138.444366,26 L133.839096,26 C133.377264,25.9673238 133.0065,25.5947748 133.0065,25.1372582 L133,1.28104546 C133.039027,0.843136582 133.422802,0.503268751 133.891134,0.503268751 L138.177682,0.503268751 C138.580965,0.522863997 138.912701,0.797386917 139.003769,1.16993593 L139.003769,4.81699271 L139.088325,4.81699271 C140.382749,1.55555592 142.197533,0 145.391303,0 C147.466276,0 149.489216,0.751634759 150.790141,2.81045693 C152,4.71895415 152,7.92810704 152,10.2352927 L152,25.2483702 C151.947964,25.6666664 151.56419,26 151.108871,26 L146.471073,26 C146.048269,25.9673238 145.697019,25.6535979 145.651492,25.2483702 L145.651492,12.2941199 C145.651492,9.68627681 145.950703,5.86927988 142.756931,5.86927988 C141.631635,5.86927988 140.597397,6.62745386 140.083532,7.7777771 C139.433074,9.23529695 139.348513,10.6862776 139.348513,12.2941199 L139.348513,25.1372582 C139.342013,25.6143825 138.938723,26 138.444371,26" id="path18"></path>
                <path d="M75.5631851,15.0849147 C75.5631851,16.9256714 75.6085042,18.4607439 74.7021333,20.0954982 C73.9705638,21.4245684 72.805231,22.2419443 71.5168908,22.2419443 C69.7494682,22.2419443 68.7136176,20.8597101 68.7136176,18.8195921 C68.7136176,14.7925202 72.2290382,14.0615339 75.5631851,14.0615339 L75.5631851,15.0849147 M80.2050968,26.60128 C79.9008182,26.8803848 79.4605776,26.9003206 79.1174524,26.7142542 C77.5895697,25.4117686 77.3111856,24.8070437 76.4760308,23.5643657 C73.9511417,26.2092086 72.1578197,27 68.8884139,27 C65.0104435,27 62,24.5478722 62,19.6369731 C62,15.8026112 64.0199144,13.1909939 66.9073508,11.9150904 C69.4063429,10.785379 72.8958641,10.5860228 75.5631851,10.2736924 L75.5631851,9.66232137 C75.5631851,8.53925613 75.6473483,7.21018855 74.999942,6.2399743 C74.4431713,5.36943183 73.3684716,5.01058355 72.4167867,5.01058355 C70.6623089,5.01058355 69.1020619,5.93428498 68.7200875,7.84814159 C68.6423991,8.27344616 68.3381205,8.69210206 67.917302,8.71203793 L63.4566667,8.22027961 C63.0811696,8.13389504 62.660356,7.82155958 62.7704162,7.23012949 C63.7933193,1.67462866 68.6877206,0 73.0641905,0 C75.3042231,0 78.2305036,0.611371039 79.9979262,2.35244838 C82.2379538,4.49889189 82.0243108,7.36303194 82.0243108,10.4796973 L82.0243108,17.8427292 C82.0243108,20.055629 82.9177319,21.0258433 83.7593616,22.2220084 C84.0506979,22.6473054 84.115439,23.158997 83.7399272,23.4779736 C82.801187,24.2820623 81.1308749,25.777263 80.2115569,26.6145748 L80.205087,26.6012673" id="path28"></path>
                <path d="M13.5596428,15.0849147 C13.5596428,16.9256714 13.6049451,18.4607439 12.6988157,20.0954982 C11.9674324,21.4245684 10.8088771,22.2419443 9.51440021,22.2419443 C7.74743929,22.2419443 6.71833243,20.8597101 6.71833243,18.8195921 C6.71833243,14.7925202 10.2328348,14.0615339 13.5596428,14.0615339 L13.5596428,15.0849147 M18.2003396,26.60128 C17.896138,26.8803848 17.4560124,26.9003206 17.1129768,26.7142542 C15.5854981,25.4117686 15.313655,24.8070437 14.4722451,23.5643657 C11.9480153,26.2092086 10.1616423,27 6.88661242,27 C3.01612566,27 0,24.5478722 0,19.6369731 C0,15.8026112 2.02585531,13.1909939 4.90606431,11.9150904 C7.40440367,10.785379 10.8930183,10.5860228 13.5596428,10.2736924 L13.5596428,9.66232137 C13.5596428,8.53925613 13.6437841,7.21018855 13.0030176,6.2399743 C12.4399164,5.36943183 11.3655048,5.01058355 10.4205343,5.01058355 C8.66652214,5.01058355 7.10020208,5.93428498 6.71833243,7.84814159 C6.64066189,8.27344616 6.33646031,8.69210206 5.92222978,8.71203793 L1.45628617,8.22027961 C1.08088721,8.13389504 0.66665422,7.82155958 0.770212468,7.23012949 C1.79932179,1.67462866 6.68596909,0 11.0613032,0 C13.3007435,0 16.2262597,0.611371039 17.9932206,2.35244838 C20.2326681,4.49889189 20.0190759,7.36303194 20.0190759,10.4796973 L20.0190759,17.8427292 C20.0190759,20.055629 20.9122686,21.0258433 21.7536785,22.2220084 C22.0514069,22.6473054 22.1161311,23.158997 21.7407321,23.4779736 C20.8022372,24.2820623 19.1323638,25.777263 18.213281,26.6145748 L18.2003396,26.6012673" id="path30"></path>
            </g>
        </g>
    </g>
</svg>