<?xml version="1.0" encoding="UTF-8"?>
<svg width="150px" height="29px" viewBox="0 0 150 29" version="1.1" xmlns="http://www.w3.org/2000/svg" xmlns:xlink="http://www.w3.org/1999/xlink">
    <!-- Generator: Sketch 47.1 (45422) - http://www.bohemiancoding.com/sketch -->
    <title>fb-logo</title>
    <desc>Created with Sketch.</desc>
    <defs></defs>
    <g id="index" stroke="none" stroke-width="1" fill="none" fill-rule="evenodd">
        <g transform="translate(-225.000000, -2498.000000)" id="fb-logo" fill="#434054">
            <g transform="translate(225.000000, 2498.000000)">
                <path d="M11.7158295,4.53957024 C9.9535023,4.53957024 9.44232719,5.32257024 9.44232719,7.04427262 L9.44232719,9.90111786 L14.1452074,9.90111786 L13.6751613,14.5207488 L9.44232719,14.5207488 L9.44232719,28.5332726 L3.80004608,28.5332726 L3.80004608,14.5207488 L-6.9124424e-05,14.5207488 L-6.9124424e-05,9.90111786 L3.80004608,9.90111786 L3.80004608,7.12195119 C3.80004608,2.465725 5.68126728,3.45238095e-05 10.9319585,3.45238095e-05 C12.0687097,3.45238095e-05 13.4003917,0.0777130952 14.2229724,0.19474881 L14.2229724,4.53957024" id="Fill-1"></path>
                <path d="M20.1794585,19.8821238 C20.1794585,22.6612905 21.1993894,24.4996833 23.8233525,24.4996833 C26.1359101,24.4996833 27.3117166,22.8169929 27.3117166,20.1569333 L27.3117166,18.2774571 C27.3117166,15.614981 26.1359101,13.9322905 23.8233525,13.9322905 C21.1993894,13.9322905 20.1794585,15.7731 20.1794585,18.5519214 L20.1794585,19.8821238 Z M14.5368318,18.6299452 C14.5368318,13.4241 17.005265,9.50944524 22.1778456,9.50944524 C24.999159,9.50944524 26.7224309,10.9587548 27.5453571,12.7577905 L27.5453571,9.90094524 L32.9539977,9.90094524 L32.9539977,28.5310286 L27.5453571,28.5310286 L27.5453571,25.7152667 C26.7614862,27.5146476 24.999159,28.9225286 22.1778456,28.9225286 C17.005265,28.9225286 14.5368318,25.0102905 14.5368318,19.8044452 L14.5368318,18.6299452 Z" id="Fill-4"></path>
                <path d="M44.7064286,9.50944524 C46.8997465,9.50944524 48.978318,9.97862381 50.1126498,10.761969 L48.8590783,14.7543024 C47.9974424,14.3237905 46.5879954,13.8936238 45.0983641,13.8936238 C42.0409908,13.8936238 40.7093088,15.6539929 40.7093088,18.6689571 L40.7093088,19.7630167 C40.7093088,22.777981 42.0409908,24.53835 45.0983641,24.53835 C46.5879954,24.53835 47.9974424,24.1081833 48.8590783,23.6776714 L50.1126498,27.67035 C48.978318,28.4530048 46.8997465,28.9225286 44.7064286,28.9225286 C38.0853456,28.9225286 35.0670276,25.3603619 35.0670276,19.6463262 L35.0670276,18.7856476 C35.0670276,13.0716119 38.0853456,9.50944524 44.7064286,9.50944524" id="Fill-6"></path>
                <path d="M56.5000576,17.4944917 L63.3181452,17.4944917 L63.3181452,17.0253131 C63.3181452,14.9901345 62.4955645,13.3854679 60.0271313,13.3854679 C57.4785138,13.3854679 56.5000576,14.9901345 56.5000576,17.4944917 M50.8574309,19.9211702 L50.8574309,18.2774917 C50.8574309,12.9939679 53.8736751,9.50947976 60.0271313,9.50947976 C65.825288,9.50947976 68.3714862,13.0326345 68.3714862,18.1998131 L68.3714862,21.1733488 L56.5000576,21.1733488 C56.6168779,23.7191345 57.753629,24.852206 60.8887673,24.852206 C63.0043203,24.852206 65.2387673,24.421694 66.8842742,23.7191345 L67.9017857,27.5923607 C66.4145737,28.3753607 63.3572005,28.961575 60.6527074,28.961575 C53.5228687,28.961575 50.8574309,25.401825 50.8574309,19.9211702" id="Fill-8"></path>
                <path d="M83.6535138,18.5108726 C83.6535138,15.8874083 82.6335829,13.932325 79.9315092,13.932325 C77.6189516,13.932325 76.3653802,15.5760036 76.3653802,18.2360631 L76.3653802,20.1935631 C76.3653802,22.8560393 77.6189516,24.4997179 79.9315092,24.4997179 C82.6335829,24.4997179 83.6535138,22.5422179 83.6535138,19.9187536 L83.6535138,18.5108726 Z M89.2957949,19.8020631 C89.2957949,25.0079083 86.7886521,28.9225631 81.6160714,28.9225631 C78.7947581,28.9225631 76.8354263,27.5122655 76.0515553,25.7128845 L76.0515553,28.5310631 L70.7230991,28.5310631 L70.7230991,0.544682143 L76.3653802,0.0364916667 L76.3653802,12.4833607 C77.1883065,10.8396821 78.9896889,9.50947976 81.6160714,9.50947976 C86.7886521,9.50947976 89.2957949,13.4220631 89.2957949,18.6275631 L89.2957949,19.8020631 Z" id="Fill-11"></path>
                <path d="M104.105599,18.3552048 C104.105599,15.8898595 103.085668,13.9323595 100.461705,13.9323595 C97.8353226,13.9323595 96.8174654,15.8898595 96.8174654,18.3552048 L96.8174654,20.0769071 C96.8174654,22.5422524 97.8353226,24.4997524 100.461705,24.4997524 C103.085668,24.4997524 104.105599,22.5422524 104.105599,20.0769071 L104.105599,18.3552048 Z M91.1751843,19.6854071 L91.1751843,18.7467048 C91.1751843,13.3851571 94.2301382,9.50951429 100.461705,9.50951429 C106.690853,9.50951429 109.74788,13.3851571 109.74788,18.7467048 L109.74788,19.6854071 C109.74788,25.0490262 106.690853,28.9225976 100.461705,28.9225976 C94.2301382,28.9225976 91.1751843,25.0490262 91.1751843,19.6854071 L91.1751843,19.6854071 Z" id="Fill-13"></path>
                <path d="M124.557753,18.3552048 C124.557753,15.8898595 123.537823,13.9323595 120.913859,13.9323595 C118.287477,13.9323595 117.26962,15.8898595 117.26962,18.3552048 L117.26962,20.0769071 C117.26962,22.5422524 118.287477,24.4997524 120.913859,24.4997524 C123.537823,24.4997524 124.557753,22.5422524 124.557753,20.0769071 L124.557753,18.3552048 Z M111.627339,19.6854071 L111.627339,18.7467048 C111.627339,13.3851571 114.682293,9.50951429 120.913859,9.50951429 C127.143007,9.50951429 130.200035,13.3851571 130.200035,18.7467048 L130.200035,19.6854071 C130.200035,25.0490262 127.143007,28.9225976 120.913859,28.9225976 C114.682293,28.9225976 111.627339,25.0490262 111.627339,19.6854071 L111.627339,19.6854071 Z" id="Fill-15"></path>
                <polyline id="Fill-17" points="137.955691 18.7855786 143.520207 9.90087619 149.515369 9.90087619 143.676083 19.0994 149.749355 28.5309595 143.756267 28.5309595 137.955691 19.4128762 137.955691 28.5309595 132.313065 28.5309595 132.313065 0.546995238 137.955691 0.0367333333"></polyline>
            </g>
        </g>
    </g>
</svg>