<?xml version="1.0" encoding="utf-8"?>
<!-- Generator: Adobe Illustrator 21.0.2, SVG Export Plug-In . SVG Version: 6.00 Build 0)  -->
<svg version="1.1" id="Layer_1" xmlns="http://www.w3.org/2000/svg" xmlns:xlink="http://www.w3.org/1999/xlink" x="0px" y="0px"
	 viewBox="0 0 433.3 83.9" style="enable-background:new 0 0 433.3 83.9;" xml:space="preserve">
<style type="text/css">
	.st0{fill:#004F9C;}
</style>
<g>
	<path id="XMLID_48_" class="st0" d="M33.9,13.1c-5.1,0-6.6,2.3-6.6,7.3v8.3h13.6l-1.4,13.4H27.3v40.6H11V42.1H0V28.7h11v-8
		C11,7.1,16.4,0,31.6,0c3.3,0,7.1,0.2,9.5,0.6v12.6"/>
	<path class="st0" d="M42.1,54c0-15.1,7.1-26.4,22.1-26.4c8.2,0,13.1,4.2,15.5,9.4v-8.3h15.6v54H79.7v-8.2
		c-2.3,5.2-7.4,9.3-15.5,9.3c-15,0-22.1-11.3-22.1-26.4 M58.4,57.6c0,8.1,3,13.4,10.5,13.4C75.6,71,79,66.1,79,58.4v-5.4
		c0-7.7-3.4-12.6-10.1-12.6c-7.6,0-10.5,5.3-10.5,13.4V57.6z"/>
	<path id="XMLID_45_" class="st0" d="M129.4,27.5c6.3,0,12.4,1.4,15.6,3.6l-3.6,11.6c-2.5-1.2-6.6-2.5-10.9-2.5
		c-8.8,0-12.7,5.1-12.7,13.8v3.2c0,8.7,3.9,13.8,12.7,13.8c4.3,0,8.4-1.2,10.9-2.5l3.6,11.6c-3.3,2.3-9.3,3.6-15.6,3.6
		c-19.2,0-27.9-10.3-27.9-26.9v-2.5C101.5,37.9,110.2,27.5,129.4,27.5"/>
	<path class="st0" d="M147.1,57.7v-4.8c0-15.3,8.7-25.4,26.5-25.4c16.8,0,24.1,10.2,24.1,25.2v8.6h-34.3c0.3,7.4,3.6,10.7,12.7,10.7
		c6.1,0,12.6-1.2,17.3-3.3l2.9,11.2c-4.3,2.3-13.1,4-21,4C154.9,83.9,147.1,73.6,147.1,57.7 M163.5,50.7h19.7v-1.4
		c0-5.9-2.4-10.5-9.5-10.5C166.3,38.8,163.5,43.4,163.5,50.7"/>
	<path class="st0" d="M258.4,57.4c0,15.1-7.3,26.4-22.2,26.4c-8.2,0-13.8-4.1-16.1-9.3v8.2h-15.4V1.6L221,0.1v36.1
		c2.4-4.8,7.6-8.6,15.2-8.6c15,0,22.2,11.3,22.2,26.4 M242,53.6c0-7.6-3-13.3-10.8-13.3c-6.7,0-10.3,4.8-10.3,12.5v5.7
		c0,7.7,3.6,12.5,10.3,12.5c7.8,0,10.8-5.7,10.8-13.3V53.6z"/>
	<path class="st0" d="M263.8,57v-2.7c0-15.5,8.8-26.8,26.9-26.8c18,0,26.9,11.2,26.9,26.8V57c0,15.5-8.8,26.8-26.9,26.8
		C272.6,83.8,263.8,72.6,263.8,57 M301.2,53.2c0-7.1-3-12.8-10.5-12.8c-7.6,0-10.5,5.7-10.5,12.8v5c0,7.1,2.9,12.8,10.5,12.8
		c7.6,0,10.5-5.7,10.5-12.8V53.2z"/>
	<path class="st0" d="M323,57v-2.7c0-15.5,8.8-26.8,26.9-26.8c18,0,26.9,11.2,26.9,26.8V57c0,15.5-8.8,26.8-26.9,26.8
		C331.8,83.8,323,72.6,323,57 M360.4,53.2c0-7.1-3-12.8-10.5-12.8c-7.6,0-10.5,5.7-10.5,12.8v5c0,7.1,2.9,12.8,10.5,12.8
		c7.6,0,10.5-5.7,10.5-12.8V53.2z"/>
	<polyline id="XMLID_32_" class="st0" points="399.2,54.4 415.3,28.7 432.6,28.7 415.7,55.3 433.3,82.6 415.9,82.6 399.2,56.2 
		399.2,82.6 382.8,82.6 382.8,1.6 399.2,0.1 	"/>
</g>
</svg>
