<?xml version="1.0" encoding="UTF-8"?>
<svg width="111px" height="43px" viewBox="0 0 111 43" version="1.1" xmlns="http://www.w3.org/2000/svg" xmlns:xlink="http://www.w3.org/1999/xlink">
    <!-- Generator: Sketch 47.1 (45422) - http://www.bohemiancoding.com/sketch -->
    <title>grab</title>
    <desc>Created with Sketch.</desc>
    <defs></defs>
    <g id="index" stroke="none" stroke-width="1" fill="none" fill-rule="evenodd">
        <g transform="translate(-1084.000000, -2645.000000)" id="grab" fill-rule="nonzero" fill="#434054">
            <g transform="translate(1084.000000, 2645.000000)">
                <path d="M88.336969,13.5429707 L88.336969,0 L91.098163,0 L91.098163,11.6418281 C90.3335247,12.0263289 89.2927669,12.752608 88.336969,13.5429707 Z M83.5367394,17.6229508 C84.3863375,16.5976155 85.2571757,15.5722802 86.2979334,14.6964729 L86.2979334,0 L83.5367394,0 L83.5367394,17.6229508 Z M51.5493685,28.3889717 C51.5493685,31.9990065 52.9724455,35.438152 55.5849598,38.0655738 C58.1762342,40.6716344 61.5958668,42.1241927 65.206659,42.1241927 C66.7359357,42.1241927 68.3076923,41.8037755 69.4121699,41.2483855 L69.4121699,38.4714357 C68.1165327,39.0268256 66.5447761,39.3472429 65.206659,39.3472429 C59.3019518,39.3472429 54.3318025,34.3487332 54.3318025,28.4103328 L54.3318025,25.911078 C54.3318025,19.9726776 59.3231917,14.9741679 65.206659,14.9741679 C68.1377727,14.9741679 70.8777268,16.106309 72.9167623,18.1569796 C74.9557979,20.2076503 76.0815155,22.9632389 76.0815155,25.911078 L76.0815155,42.1455539 L78.8427095,42.1455539 L78.8427095,25.3770492 C78.6727899,21.8310979 77.1647532,18.5201192 74.6159587,16.0422255 C72.0459242,13.5643318 68.7112514,12.1972181 65.206659,12.1972181 C61.6171068,12.1972181 58.1974742,13.6284153 55.5849598,16.2558371 C52.9936854,18.8618977 51.5493685,22.3010432 51.5493685,25.9324391 L51.5493685,28.3889717 Z M92.8823192,21.7242921 C94.1354765,20.4639841 95.749713,19.7590661 97.3427095,19.7590661 C100.762342,19.7590661 103.417336,22.4505713 103.417336,25.8683557 L103.417336,28.3676105 C103.417336,31.8067561 100.741102,34.4769001 97.3427095,34.4769001 C95.6859931,34.4769001 94.0929966,33.5583706 92.8398393,31.9135618 C91.7353617,30.4610035 91.0132032,28.4744163 90.9070034,26.7014406 L88.6768083,29.4783905 C89.1228473,31.5717834 90.206085,33.6010929 91.7566016,35.010929 C93.3495982,36.4634873 95.3461538,37.2752111 97.3427095,37.2752111 C102.227899,37.2752111 106.19977,33.2806756 106.19977,28.3889717 L106.19977,25.8897168 C106.19977,23.5613512 105.265212,21.3397914 103.566016,19.6522603 C101.86682,17.9433681 99.6578645,17.0034774 97.3427095,17.0034774 C95.8771527,17.0034774 93.5619977,17.5375062 90.8008037,20.0367611 C90.0574053,20.7844014 88.315729,22.5360159 87.2537313,23.7749627 C85.4695752,25.7401888 82.8995408,28.6666667 80.6905855,31.6358669 L80.6905855,35.9721808 C83.1331803,32.8107303 84.5350172,31.0377546 86.8501722,28.3676105 C88.8892078,25.9324391 91.4380023,23.0059613 92.8823192,21.7242921 Z M27.6331803,16.4908097 L27.6331803,13.2011923 C25.1268657,11.8554396 22.4081515,11.2573274 18.7973594,11.2573274 C15.1016073,11.2573274 11.5970149,12.6244411 8.94202067,15.0809737 C6.26578645,17.5588674 4.80022962,20.8057625 4.80022962,24.2662692 L4.80022962,25.1634377 C4.80022962,32.3407849 10.5137773,38.1723795 17.565442,38.1723795 C23.2789897,38.1723795 25.6366246,36.2925981 26.2313433,35.6944858 L26.2313433,27.3422752 L16.8857635,27.3422752 L16.8857635,30.119225 L23.6400689,30.119225 L23.6400689,34.3060109 L23.6188289,34.3060109 C22.7479908,34.6477894 20.9425947,35.3740686 17.565442,35.3740686 C14.8892078,35.3740686 12.3616533,34.3273721 10.4925373,32.4048684 C8.6021814,30.4823646 7.58266361,27.9190263 7.58266361,25.1420765 L7.58266361,24.2449081 C7.58266361,18.7123696 12.7227325,14.012916 18.8185993,14.012916 C23.0028703,14.0342772 25.5091848,14.7391952 27.6331803,16.4908097 Z M47.7686567,19.7590661 C48.8094145,19.7590661 49.7014925,19.9299553 50.423651,20.2717337 C50.7634902,19.4172876 51.1245695,18.6910084 51.6343284,17.8365623 C50.89093,17.3025335 49.0855339,16.9607551 47.7686567,16.9607551 C42.7347876,16.9607551 38.9328358,20.7844014 38.9328358,25.8683557 L38.9328358,42.1028316 L41.6940299,42.1028316 L41.6940299,25.8683557 C41.6940299,22.2796821 44.1791045,19.7590661 47.7686567,19.7590661 L47.7686567,19.7590661 Z M0,24.2662692 L0,25.1634377 C0,29.9910581 1.82663605,34.4769001 5.11882893,37.8306011 C8.41102181,41.1629409 12.8289323,43 17.5442021,43 C21.3461538,43 24.7020666,42.1455539 27.5482204,40.4366617 C29.8846154,39.0268256 30.9253731,37.6169896 31.010333,37.4888227 L31.010333,22.5360159 L16.8857635,22.5360159 L16.8857635,25.3129657 L28.2491389,25.3129657 L28.2491389,36.6557377 C26.9110218,38.0014903 23.7462687,40.2444113 17.565442,40.2444113 C13.5298507,40.2444113 9.79161883,38.6850472 7.0304248,35.8653751 C4.29047072,33.0670641 2.78243398,29.2647789 2.78243398,25.1847988 L2.78243398,24.2876304 C2.78243398,20.4212618 4.50287026,16.5762543 7.51894374,13.7352211 C10.5987371,10.8301043 14.6130884,9.22801788 18.8185993,9.22801788 C22.7479908,9.22801788 25.4667049,9.82613015 27.6544202,11.1718828 L27.6544202,8.03179334 C25.3605052,7.04918033 22.6205511,6.62195728 18.7973594,6.62195728 C8.6021814,6.62195728 0,14.6964729 0,24.2662692 Z M74.02124,42.1028316 L74.02124,25.8683557 C74.02124,20.869846 70.1343284,16.9607551 65.1641791,16.9607551 C62.8490241,16.9607551 60.6400689,17.9006458 58.9408726,19.609538 C57.2416762,21.3184302 56.3071183,23.5399901 56.3071183,25.8469945 L56.3071183,28.3462494 C56.3071183,33.1738698 60.3639495,37.2324888 65.1429392,37.2324888 C66.4598163,37.2324888 68.2439724,36.9120715 69.3484501,35.993542 L69.3484501,33.1097864 C68.2652124,33.9855936 66.7146958,34.4982613 65.1429392,34.4982613 C61.7445465,34.4982613 59.0683123,31.8067561 59.0683123,28.3889717 L59.0683123,25.8897168 C59.0683123,22.4505713 61.7445465,19.7804272 65.1429392,19.7804272 C68.5625718,19.7804272 71.217566,22.4719324 71.217566,25.8897168 L71.217566,42.1241927 L74.02124,42.1241927 L74.02124,42.1028316 Z M47.7686567,14.9314456 C49.6377727,14.9314456 51.2732491,15.3373075 52.738806,16.1703924 C53.4184845,15.2945852 54.119403,14.6110283 54.6504018,14.0769995 C53.0998852,12.880775 50.4661309,12.1544958 47.7898967,12.1544958 C43.945465,12.1544958 40.4621125,13.5429707 37.9770379,16.0849478 C35.5132032,18.5842027 34.1538462,22.0660705 34.1538462,25.8897168 L34.1538462,42.1241927 L36.9150402,42.1241927 L36.9150402,25.8897168 C36.8938002,19.4386488 41.3541906,14.9314456 47.7686567,14.9314456 Z M106.964409,16.2131148 C104.373134,13.6070541 100.953502,12.1544958 97.3427095,12.1544958 C94.7089552,12.1544958 92.0752009,13.1371088 90.6096441,14.1197218 C87.5935706,16.1276701 85.1297359,18.3278689 80.6693456,24.1167412 L80.6693456,28.2821659 C84.4500574,23.3263785 88.0183697,19.4386488 90.7370838,17.2811724 C92.52124,15.8499752 95.0487945,14.9528068 97.3427095,14.9528068 C103.247417,14.9528068 108.217566,19.9726776 108.217566,25.8897168 L108.217566,28.3889717 C108.217566,31.3154496 107.070608,34.0710383 104.989093,36.14307 C102.928817,38.1937407 100.210103,39.3258818 97.3427095,39.3258818 C92.5,39.3258818 88.2307692,35.9721808 87.0838117,31.4222553 L85.1297359,33.7933433 C86.5528129,38.5782414 91.6928817,42.1028316 97.3427095,42.1028316 C100.953502,42.1028316 104.351894,40.6502732 106.964409,38.0442126 C109.555683,35.4167909 111,31.9990065 111,28.3676105 L111,25.8683557 C111,22.2583209 109.555683,18.8191754 106.964409,16.2131148 Z" id="Shape"></path>
            </g>
        </g>
    </g>
</svg>