<?xml version="1.0" encoding="UTF-8"?>
<svg width="94px" height="38px" viewBox="0 0 94 38" version="1.1" xmlns="http://www.w3.org/2000/svg" xmlns:xlink="http://www.w3.org/1999/xlink">
    <!-- Generator: Sketch 47.1 (45422) - http://www.bohemiancoding.com/sketch -->
    <title>ibm</title>
    <desc>Created with Sketch.</desc>
    <defs></defs>
    <g id="index" stroke="none" stroke-width="1" fill="none" fill-rule="evenodd">
        <g transform="translate(-813.000000, -2650.000000)" id="ibm" fill-rule="nonzero" fill="#434054">
            <g transform="translate(813.000000, 2650.000000)">
                <polygon id="Shape" points="93.7 2.7 78.1 2.7 79.1 0 93.7 0"></polygon>
                <path d="M52.1,0 L66.6,0 L67.5,2.7 C67.5,2.7 52.1,2.7 52.1,2.7 C52.1,2.7 52.1,0 52.1,0 Z" id="Shape"></path>
                <path d="M40.6,0 C43,0.2 45.1,1.1 46.8,2.7 C46.8,2.7 20.5,2.7 20.5,2.7 C20.5,2.7 20.5,0 20.5,0 L40.6,0 Z" id="Shape"></path>
                <g id="Group">
                    <rect id="Rectangle-path" x="0" y="0" width="18.2" height="2.7"></rect>
                </g>
                <path d="M93.7,7.7 L76.3,7.7 C76.3,7.7 77.2,5 77.2,5 L93.6,5 L93.6,7.7 L93.7,7.7 Z" id="Shape"></path>
                <polygon id="Shape" points="69.4 7.7 52.1 7.7 52.1 5.1 68.4 5.1"></polygon>
                <path d="M48.9,5.1 C49.2,6 49.7,6.7 49.7,7.8 L20.6,7.8 L20.6,5.1 L48.9,5.1 Z" id="Shape"></path>
                <g id="Group" transform="translate(0.000000, 5.000000)">
                    <rect id="Rectangle-path" x="0" y="0.1" width="18.2" height="2.7"></rect>
                </g>
                <polygon id="Shape" points="74.6 12.8 75.5 10.1 88.6 10.1 88.6 12.8"></polygon>
                <polygon id="Shape" points="70.2 10.1 71.2 12.8 57.3 12.8 57.3 10.1"></polygon>
                <path d="M49.9,10.1 C49.9,11 49.8,12 49.5,12.8 L41.5,12.8 L41.5,10.1 L49.9,10.1 L49.9,10.1 Z" id="Shape"></path>
                <g id="Group" transform="translate(5.000000, 10.000000)">
                    <rect id="Rectangle-path" x="0.1" y="0.1" width="7.8" height="2.7"></rect>
                </g>
                <g id="Group" transform="translate(25.000000, 10.000000)">
                    <rect id="Rectangle-path" x="0.9" y="0.1" width="7.8" height="2.7"></rect>
                </g>
                <path d="M65,15.7 C65,15.7 65,17.7 65,17.7 L57.3,17.7 L57.3,15 L72,15 L72.9,17.5 C72.9,17.5 73.8,15 73.8,15 L88.6,15 L88.6,17.7 L80.9,17.7 C80.9,17.7 80.9,15.7 80.9,15.7 L80.2,17.7 L65.7,17.7 L65,15.7 Z" id="Shape"></path>
                <path d="M25.9,15.1 L48.4,15.1 L48.4,15.1 C47.9,16 47,17.1 46.2,17.8 C46.2,17.8 26,17.8 26,17.8 C25.9,17.7 25.9,15.1 25.9,15.1 Z" id="Shape"></path>
                <g id="Group" transform="translate(5.000000, 15.000000)">
                    <rect id="Rectangle-path" x="0.1" y="0.1" width="7.8" height="2.7"></rect>
                </g>
                <g id="Group" transform="translate(80.000000, 20.000000)">
                    <rect id="Rectangle-path" x="0.9" y="0.1" width="7.7" height="2.7"></rect>
                </g>
                <path d="M65,20.1 L57.3,20.1 L57.3,22.8 C57.3,22.8 65,22.8 65,22.8 C65,22.8 65,20.1 65,20.1 Z" id="Shape"></path>
                <path d="M79.4,20.1 C79.4,20.1 78.5,22.8 78.5,22.8 L67.6,22.8 C67.6,22.8 66.6,20.1 66.6,20.1 L79.4,20.1 Z" id="Shape"></path>
                <path d="M25.9,20.1 L46.1,20.1 C47,20.9 47.9,21.8 48.5,22.8 C48.5,22.8 25.9,22.8 25.9,22.8 C25.9,22.8 25.9,20.1 25.9,20.1 Z" id="Shape"></path>
                <polygon id="Shape" points="12.9 22.8 12.9 20.1 5.1 20.1 5.1 22.8"></polygon>
                <g id="Group" transform="translate(80.000000, 25.000000)">
                    <rect id="Rectangle-path" x="0.9" y="0.2" width="7.7" height="2.7"></rect>
                </g>
                <g id="Group" transform="translate(57.000000, 25.000000)">
                    <rect id="Rectangle-path" x="0.3" y="0.2" width="7.7" height="2.7"></rect>
                </g>
                <path d="M76.6,27.9 C76.6,27.9 77.5,25.2 77.6,25.2 L68.3,25.2 C68.3,25.2 69.3,27.9 69.3,27.9 C69.3,27.9 76.6,27.9 76.6,27.9 Z" id="Shape"></path>
                <path d="M25.9,27.8 C25.9,27.8 25.9,25.1 25.9,25.1 L33.8,25.1 C33.8,25.1 33.8,27.8 33.8,27.8 C33.8,27.8 25.9,27.8 25.9,27.8 Z" id="Shape"></path>
                <path d="M49.6,25.2 C50,26 50,27 50.1,27.9 L41.7,27.9 L41.7,25.2 L49.6,25.2 Z" id="Shape"></path>
                <g id="Group" transform="translate(5.000000, 25.000000)">
                    <rect id="Rectangle-path" x="0.1" y="0.2" width="7.8" height="2.7"></rect>
                </g>
                <g id="Group" transform="translate(80.000000, 30.000000)">
                    <rect id="Rectangle-path" x="0.9" y="0.1" width="12.8" height="2.7"></rect>
                </g>
                <g id="Group" transform="translate(52.000000, 30.000000)">
                    <rect id="Rectangle-path" x="0.1" y="0.1" width="12.8" height="2.7"></rect>
                </g>
                <polygon id="Shape" points="74.9 32.8 71 32.8 70 30.1 75.8 30.1"></polygon>
                <path d="M0,30.1 L0,32.8 L18.2,32.8 C18.2,32.8 18.2,30.1 18.2,30.1 C18.2,30.1 0,30.1 0,30.1 Z" id="Shape"></path>
                <path d="M49.8,30.1 C49.6,31 49.4,32.1 48.8,32.8 L48.6,32.8 L20.6,32.8 L20.6,30.1 L49.8,30.1 L49.8,30.1 Z" id="Shape"></path>
                <polygon id="Shape" points="73.1 37.8 72.8 37.8 71.8 35.2 74.1 35.2"></polygon>
                <g id="Group" transform="translate(80.000000, 35.000000)">
                    <rect id="Rectangle-path" x="0.9" y="0.2" width="12.8" height="2.7"></rect>
                </g>
                <path d="M20.6,37.8 L20.6,35.1 C20.6,35.1 46.9,35.1 47,35.1 C45.2,36.8 42.8,37.7 40.2,37.8 L20.6,37.8" id="Shape"></path>
                <g id="Group" transform="translate(52.000000, 35.000000)">
                    <rect id="Rectangle-path" x="0.1" y="0.2" width="12.8" height="2.7"></rect>
                </g>
                <path d="M18.2,35.2 C18.2,35.2 18.2,37.9 18.2,37.9 C18.2,37.9 0,37.9 0,37.9 C0,37.9 0,35.2 0,35.2 C0,35.2 18.2,35.2 18.2,35.2 Z" id="Shape"></path>
            </g>
        </g>
    </g>
</svg>