<?xml version="1.0" encoding="UTF-8"?>
<svg width="86px" height="57px" viewBox="0 0 86 57" version="1.1" xmlns="http://www.w3.org/2000/svg" xmlns:xlink="http://www.w3.org/1999/xlink">
    <!-- Generator: Sketch 47.1 (45422) - http://www.bohemiancoding.com/sketch -->
    <title>intel</title>
    <desc>Created with Sketch.</desc>
    <defs></defs>
    <g id="index" stroke="none" stroke-width="1" fill="none" fill-rule="evenodd">
        <g transform="translate(-528.000000, -2640.000000)" id="intel" fill-rule="nonzero" fill="#434054">
            <g transform="translate(528.000000, 2640.000000)">
                <path d="M25.3378332,24.177311 L25.3378332,38.1354724 L20.9170206,38.1354724 L20.9170206,20.5907139 L30.0438282,20.5998217 C33.9203531,20.5998217 35.2409033,23.3473915 35.2409033,25.8430903 L35.2409033,38.1354927 L30.8280702,38.1354927 L30.8280702,25.866086 C30.8280702,24.8206397 30.2896352,24.1773313 28.9908967,24.1773313 L25.3378332,24.1773313 L25.3378332,24.177311 Z M55.3987258,23.9676868 C53.8877,23.9676868 52.718253,24.7484301 52.2298279,25.8083125 C51.9403917,26.4446712 51.8409001,26.9323671 51.8068493,27.7115034 L58.6080582,27.7115034 C58.5208028,25.8083125 57.6620726,23.9676868 55.3987258,23.9676868 L55.3987258,23.9676868 Z M51.8068493,30.7355409 C51.8068493,33.0082469 53.2125279,34.6809586 55.7222128,34.6809586 C57.6748398,34.6809586 58.6453008,34.1371135 59.7743134,33.0082469 L62.5048018,35.6285426 C60.7564824,37.3632888 58.9219697,38.4167551 55.6897579,38.4167551 C51.457822,38.4167551 47.4078483,36.097524 47.4078483,29.3382266 C47.4078483,23.5628776 50.9438624,20.2933911 55.5902634,20.2933911 C60.2999811,20.2933911 63.0208912,24.1211617 63.0208912,29.1350214 L63.0208912,30.7355409 L51.8068493,30.7355409 L51.8068493,30.7355409 Z M43.6760429,38.113547 C40.0745881,38.113547 38.5465355,35.5937851 38.5465355,33.1050389 L38.5465355,15.8105443 L42.9604335,15.8105443 L42.9604335,20.5907139 L46.2878802,20.5907139 L46.2878802,24.177311 L42.9604335,24.177311 L42.9604335,32.8269642 C42.9604335,33.8462068 43.4392803,34.4119773 44.4922089,34.4119773 L46.2878802,34.4119773 L46.2878802,38.113547 L43.6760429,38.113547 L43.6760429,38.113547 Z M16.9835654,18.166137 L12.5324277,18.166137 L12.5324277,13.9164438 L16.9835654,13.9164438 L16.9835654,18.166137 Z M16.9947627,38.3199631 C13.6614633,37.9980406 12.527663,35.9659745 12.527663,33.6210762 L12.5324825,20.5907139 L16.9947973,20.5907139 L16.9947973,38.3199631 L16.9947627,38.3199631 Z M70.0461186,37.9450994 C66.7197339,37.6226432 65.5912551,35.5937851 65.5912551,33.2520948 L65.5912551,13.3116346 L70.0461186,13.3116346 L70.0461186,37.9450994 L70.0461186,37.9450994 Z M85.619789,16.1934282 C81.5825826,-3.58981547 43.3743907,-4.84220864 18.7468049,10.2266358 L18.7468049,11.8902572 C43.3493843,-0.81764599 78.2418318,-0.742782305 81.4208391,17.4784411 C82.484408,23.5035204 79.1064147,29.7852826 73.0734859,33.3959428 L73.0734859,38.119966 C80.3349217,35.4499372 87.7820426,26.7917272 85.6197862,16.1934282 L85.619789,16.1934282 Z M40.8524667,50.8064746 C23.8555597,52.3856052 6.14357723,49.9059494 3.66528237,36.5568784 C2.45220622,29.9761893 5.43488529,23.0003181 9.391751,18.6672016 L9.391751,16.3501111 C2.26864817,22.6281287 -1.59723647,30.5761836 0.628333832,39.9675414 C3.46895707,52.0102078 18.6701898,58.8347448 41.8724094,56.5684548 C51.0524215,55.6679297 63.0677324,52.7011117 71.4209353,48.0931315 L71.4209353,41.5466721 C63.8413341,46.0829908 51.2987596,49.8342909 40.8524667,50.8064746 L40.8524667,50.8064746 Z" id="path4423"></path>
                <path d="M75.3907798,14.486434 C75.3907798,14.2426997 75.2487354,14.1652593 74.9238934,14.1652593 L74.6104393,14.1652593 L74.6104393,14.8550362 C74.6559875,14.8550362 74.8837384,14.8634373 74.9238934,14.8634373 C75.2487354,14.8634373 75.3907798,14.7547792 75.3907798,14.5266521 L75.3907798,14.4864568 L75.3907798,14.486434 Z M75.8798406,16.196775 L75.5082508,16.196775 C75.4746886,16.196775 75.44532,16.1757396 75.4309348,16.1475501 L74.9238934,15.2866763 C74.9148884,15.2692878 74.8711509,15.2482524 74.8537717,15.2482524 L74.6260208,15.2482524 L74.6260208,16.1019234 C74.6260208,16.1475501 74.5948447,16.196775 74.5349211,16.196775 L74.1986912,16.196775 C74.1567384,16.196775 74.1147857,16.1475501 74.1147857,16.1019234 L74.1147857,13.9425343 C74.1147857,13.8176665 74.1633313,13.7654394 74.2688162,13.7492297 C74.3874834,13.7336322 74.7099295,13.7228214 74.8837384,13.7228214 C75.5010598,13.7228214 75.8744473,13.9053218 75.8744473,14.4864405 L75.8744473,14.5266391 C75.8744473,14.8862377 75.6958434,15.0759409 75.4189488,15.1689918 L75.9445723,16.0592827 C75.9479207,16.0772898 75.9601441,16.1019299 75.9601441,16.1229165 C75.9601441,16.1577357 75.9391433,16.1967587 75.8798308,16.1967587 L75.8798406,16.196775 Z M74.9976041,13.3331838 C74.0830082,13.3331838 73.3434241,14.0896001 73.3434241,15.0003012 C73.3434241,15.9122006 74.0830082,16.6566111 74.9976041,16.6566111 C75.9074016,16.6566111 76.65418,15.9122006 76.65418,15.0003012 C76.65418,14.0896001 75.9074016,13.3331838 74.9976041,13.3331838 L74.9976041,13.3331838 Z M74.9976041,17 C73.8864269,17 73,16.1019071 73,15.0003012 C73,13.900496 73.8864269,13 74.9976041,13 C76.0967953,13 77,13.900496 77,15.0003012 C77,16.1019071 76.0967953,17 74.9976041,17 L74.9976041,17 Z" id="path4425"></path>
            </g>
        </g>
    </g>
</svg>