<?xml version="1.0" encoding="UTF-8"?>
<svg width="150px" height="31px" viewBox="0 0 150 31" version="1.1" xmlns="http://www.w3.org/2000/svg" xmlns:xlink="http://www.w3.org/1999/xlink">
    <!-- Generator: Sketch 47.1 (45422) - http://www.bohemiancoding.com/sketch -->
    <title>lenovo</title>
    <desc>Created with Sketch.</desc>
    <defs></defs>
    <g id="index" stroke="none" stroke-width="1" fill="none" fill-rule="evenodd">
        <g transform="translate(-224.000000, -2653.000000)" id="lenovo" fill-rule="nonzero" fill="#434054">
            <g transform="translate(224.000000, 2653.000000)">
                <g id="g13605" transform="translate(61.000000, 19.000000) scale(-1, 1) rotate(90.000000) translate(-61.000000, -19.000000) translate(49.000000, 7.000000)">
                    <path d="M0,14.4083376 C0,11.6929155 1.25877115,8.60471322 3.77886674,6.71783314 L3.77376016,6.71910979 L3.77503681,6.71783314 L0.395759692,6.71910979 L0.395759692,0.242693923 L23.9804841,0.242693923 L23.9804841,6.71783314 L10.5604006,6.71783314 C8.14498979,6.71783314 5.57765837,8.59067014 5.57765837,12.0580357 C5.57765837,14.7377118 7.44155886,17.5105829 10.5604006,17.5105829 L23.9804841,17.5105829 L23.9804841,23.9869988 L9.36035504,23.9869988 C3.93589397,23.9869988 0,20.1060005 0,14.4083376" id="path13607"></path>
                </g>
                <g id="g13609" transform="translate(113.000000, 19.000000) scale(-1, 1) rotate(90.000000) translate(-113.000000, -19.000000) translate(101.000000, 6.000000)">
                    <polygon id="path13611" points="0 18.6237722 16.2712555 12.9298642 0 7.23595628 0 0.0409722988 23.8793346 9.47825845 23.8793346 16.3802284 0 25.8175146"></polygon>
                </g>
                <g id="g13613" transform="translate(34.000000, 19.000000) scale(-1, 1) rotate(90.000000) translate(-34.000000, -19.000000) translate(22.000000, 7.000000)">
                    <path d="M7.47073254,7.37962604 C6.02639092,8.4422922 5.17846277,10.1346864 5.17846277,12.1788428 C5.17846277,14.4271689 6.47837023,16.1330925 8.39710337,17.0149578 L12.9754173,6.11402018 C10.6258719,5.81637526 8.78807171,6.41043516 7.47073254,7.37962604 L7.47073254,7.37962604 Z M16.470475,19.3665986 C18.4377679,16.7406817 18.9071789,15.2401577 18.9071789,12.8454691 C18.9071789,10.6906183 18.2298325,9.00314377 17.041986,7.81379404 L10.3432292,23.7648557 C7.84675941,23.4167834 5.61674575,22.4808008 3.92088946,21.0405438 C1.45679285,18.94473 0.153150017,15.8428272 0.153150017,12.0656886 C0.153150017,5.20509624 5.27682742,0.0319783795 12.044066,0.0319783795 C18.9868667,0.0319783795 23.9337368,5.21739561 23.9337368,12.7532237 C23.9337368,16.9755998 21.9079232,21.292681 19.5409461,23.3122387 L16.470475,19.3665986 Z" id="path13615"></path>
                </g>
                <g id="g13617" transform="translate(10.500000, 15.500000) scale(-1, 1) rotate(90.000000) translate(-10.500000, -15.500000) translate(-5.000000, 5.000000)">
                    <polygon id="path13619" points="24.9354703 20.8340349 24.9354703 6.50305231 0.233809041 6.50305231 0.233809041 0.111906383 30.884508 0.111906383 30.884508 20.8340349"></polygon>
                </g>
                <g id="g13621" transform="translate(137.000000, 18.500000) scale(-1, 1) rotate(90.000000) translate(-137.000000, -18.500000) translate(125.000000, 6.000000)">
                    <path d="M5.63301786,12.5068067 C5.63301786,8.96362837 8.30629498,6.39097823 12.1088978,6.39097823 C15.7396739,6.39097823 18.5847778,9.11621141 18.5847778,12.591853 C18.5847778,16.136282 15.8380385,18.7076815 12.1088978,18.7076815 C8.47812183,18.7076815 5.63301786,15.983699 5.63301786,12.5068067 M23.9973236,12.5068067 C23.9973236,5.56803035 18.851234,0.13132147 12.1088978,0.13132147 C5.44251418,0.13132147 0.220472132,5.60555077 0.220472132,12.591853 C0.220472132,19.5306294 5.36656173,24.9660875 12.1088978,24.9660875 C18.7740364,24.9660875 23.9973236,19.4931089 23.9973236,12.5068067" id="path13623"></path>
                </g>
                <g id="g13625" transform="translate(87.000000, 18.500000) scale(-1, 1) rotate(90.000000) translate(-87.000000, -18.500000) translate(75.000000, 6.000000)">
                    <path d="M5.63301786,12.5068067 C5.63301786,8.96362837 8.30629498,6.39222891 12.1088978,6.39222891 C15.7396739,6.39222891 18.5847778,9.11621141 18.5847778,12.5931037 C18.5847778,16.136282 15.8380385,18.7076815 12.1088978,18.7076815 C8.47812183,18.7076815 5.63301786,15.983699 5.63301786,12.5068067 M23.9973236,12.5068067 C23.9973236,5.56803035 18.851234,0.132572151 12.1088978,0.132572151 C5.44251418,0.132572151 0.220472132,5.60555077 0.220472132,12.5931037 C0.220472132,19.5306294 5.36656173,24.9673382 12.1088978,24.9673382 C18.7740364,24.9673382 23.9973236,19.4931089 23.9973236,12.5068067" id="path13627"></path>
                </g>
            </g>
        </g>
    </g>
</svg>