<?xml version="1.0" encoding="UTF-8"?>
<svg width="150px" height="35px" viewBox="0 0 150 35" version="1.1" xmlns="http://www.w3.org/2000/svg" xmlns:xlink="http://www.w3.org/1999/xlink">
    <!-- Generator: Sketch 47.1 (45422) - http://www.bohemiancoding.com/sketch -->
    <title>orange</title>
    <desc>Created with Sketch.</desc>
    <defs></defs>
    <g id="index" stroke="none" stroke-width="1" fill="none" fill-rule="evenodd">
        <g transform="translate(-785.000000, -2553.000000)" id="orange" fill-rule="nonzero" fill="#434054">
            <g transform="translate(785.000000, 2553.000000)">
                <path d="M12.5044062,26 C5.93056046,26 0,21.9187113 0,12.9999949 C0,4.08128873 5.93056046,0 12.5044062,0 C19.0782519,0 25,4.08128873 25,12.9999949 C25,21.9187062 19.0782519,26 12.5044062,26 M12.5044062,5.48182351 C7.53436739,5.48182351 6.62671853,9.84666242 6.62671853,12.9999949 C6.62671853,16.1533426 7.53436739,20.5267744 12.5044062,20.5267744 C17.4744449,20.5267744 18.3820938,16.1533426 18.3820938,12.9999949 C18.3820938,9.84666242 17.4744449,5.48182351 12.5044062,5.48182351" id="letter_o"></path>
                <path d="M29,0.524264708 L35.2590275,0.524264708 L35.2590275,3.51879727 C36.4532988,1.90157039 39.3910316,0 42.1457022,0 C42.4072218,0 42.7297624,0 43,0.0355671287 L43,6.33563018 L42.6774595,6.33563018 C39.81818,6.33563018 36.688666,6.7888077 35.6774584,9.05470055 L35.6774584,26 L29,26 L29,0.52429086 L29,0.524264708 Z" id="letter_r"></path>
                <path d="M60.6151377,23.4991575 C58.0820167,25.1839318 55.3406924,26 52.391165,26 C47.75,26 45,22.876142 45,18.6817392 C45,13.0482632 50.1182967,10.0735748 60.6671923,8.87141156 L60.6671923,7.46742518 C60.6671923,5.64224649 59.2965276,4.57171714 56.7634066,4.57171714 C54.2302805,4.57171714 52.1742911,5.58960326 50.6908517,7.46742518 L46.2752363,4.92270986 C48.5914835,1.64090157 52.1222365,0 56.8675057,0 C63.356467,0 67,2.84306481 67,7.46742518 C67,7.46742518 66.9913191,25.6577829 67,25.7016505 L61.1963684,25.7016505 L60.6151377,23.4991575 L60.6151377,23.4991575 Z M51.4455825,18.1991178 C51.4455825,19.8926729 52.4952692,21.4721505 54.3951099,21.4721505 C56.4511044,21.4721505 58.4550442,20.6122199 60.4589891,18.8221384 L60.4589891,12.8639912 C54.3430604,13.6274058 51.4455825,15.2244294 51.4455825,18.199123 L51.4455825,18.1991178 Z" id="letter_a"></path>
                <path d="M72,1.25162255 L77.5868637,0.488218485 L78.2036554,3.50631967 C81.3501764,1.21611793 83.8530917,0 86.9996127,0 C92.2736133,0 95,2.77842545 95,8.28200113 L95,26 L88.2510704,26 L88.2510704,9.44486475 C88.2510704,6.32912196 87.4376263,4.92659305 84.9972836,4.92659305 C82.9860095,4.92659305 80.9747407,5.83202079 78.6774226,7.74940579 L78.6774226,26 L72,26 L72,1.25162255 L72,1.25162255 Z" id="letter_n"></path>
                <path d="M110.43124,20.0269535 C115.347532,19.9923626 115.768687,14.9466533 115.768687,11.6665326 C115.768687,7.77192641 113.886396,4.63028148 110.388267,4.63028148 C108.05904,4.63028148 105.454784,6.34390229 105.454784,11.9348287 C105.454784,14.9899301 105.669654,20.0702202 110.43124,20.0269535 L110.43124,20.0269535 Z M122,0.45872383 L122,23.9561761 C122,28.0931123 121.673392,34.9389656 109.941331,34.9995481 C105.093794,35.0341899 100.598651,33.0782085 99.704779,28.8201074 L106.099399,27.7815444 C106.365842,29.0018549 107.113599,30.21351 110.740657,30.21351 C114.101271,30.21351 115.717113,28.5950881 115.717113,24.7177876 L115.717113,21.827128 L115.631167,21.7405794 C114.599775,23.6013364 113.035501,25.3582341 109.270924,25.3582341 C103.520924,25.3582341 99,21.3424629 99,12.956081 C99,4.6562425 103.66704,0.00868020209 108.901344,2.48311539e-05 C113.826231,-0.00863563417 115.639763,2.25024297 116.069507,3.43593199 L115.983556,3.42727153 L116.525039,0.458718735 L122,0.458718735 L122,0.45872383 Z" id="letter_g"></path>
                <path d="M138.681852,26 C131.364459,26 127,21.2600503 127,13.043564 C127,4.73123076 131.416416,0 138.577938,0 C145.739454,0 150,4.59182485 150,12.7124641 C150,13.1481197 149.948038,13.5750667 149.948038,14.0020085 L133.416794,14.0020085 C133.460071,18.7419531 135.417167,21.1293531 139.262048,21.1293531 C141.730043,21.1293531 143.366718,20.1273446 144.899469,17.9316335 L149.679593,20.5978504 C147.575301,24.1440976 143.782378,25.9999949 138.681852,25.9999949 L138.681852,26 Z M143.583206,9.7412836 C143.583206,6.40415299 141.678086,4.43498615 138.577938,4.43498615 C135.625,4.43498615 133.780498,6.36058896 133.520708,9.7412836 L143.583206,9.7412836 L143.583206,9.7412836 Z" id="letter_e"></path>
            </g>
        </g>
    </g>
</svg>