<?xml version="1.0" encoding="UTF-8"?>
<svg width="72px" height="32px" viewBox="0 0 72 32" version="1.1" xmlns="http://www.w3.org/2000/svg" xmlns:xlink="http://www.w3.org/1999/xlink">
    <!-- Generator: Sketch 47.1 (45422) - http://www.bohemiancoding.com/sketch -->
    <title>sap</title>
    <desc>Created with Sketch.</desc>
    <defs></defs>
    <g id="index" stroke="none" stroke-width="1" fill="none" fill-rule="evenodd">
        <g transform="translate(-535.000000, -2550.000000)" id="sap" fill="#434054">
            <g transform="translate(535.000000, 2550.000000)">
                <path d="M58.1205659,0.487619048 L48.232603,0.487619048 L48.232603,24.1371429 L39.6146538,0.487619048 L31.0571813,0.487619048 L23.7092456,20.2971429 C22.9230468,15.2990476 17.812754,13.592381 13.7608059,12.312381 C11.0998251,11.4590476 8.2876522,10.1790476 8.31789061,8.77714286 C8.34812903,7.61904762 9.82981154,6.55238095 12.7931766,6.7352381 C14.7586738,6.82666667 16.512502,7.00952381 20.0201586,8.68571429 L23.4673383,2.65142857 C20.2620659,1.03619048 15.8774952,0 12.2791234,0 L12.248885,0 C8.04574485,0 4.5380883,1.37142857 2.36092217,3.62666667 C0.849001241,5.21142857 0.0325639412,7.22285714 0.00232552269,9.41714286 C-0.0581513143,12.4647619 1.06067017,14.6285714 3.3890284,16.3657143 C5.3545256,17.8285714 7.86431434,18.7733333 10.1019573,19.4742857 C12.8536534,20.327619 15.0912964,21.0590476 15.0610579,22.6742857 C15.0610579,23.2533333 14.8191506,23.8019048 14.4260512,24.2285714 C13.7305675,24.9295238 12.7024613,25.2038095 11.2510172,25.2342857 C8.43884429,25.2952381 6.38263183,24.8380952 3.05640579,22.887619 L0.00232552269,28.9828571 C3.29831314,30.872381 7.19906913,32 11.1905404,32 L11.7045935,32 C15.1517732,31.9390476 17.9639461,30.9333333 20.2015891,29.1352381 C20.3225428,29.0438095 20.4434964,28.9219048 20.5644501,28.8304762 L19.5665823,31.4819048 L28.5473926,31.4819048 L30.0593135,26.88 C31.6317113,27.3980952 33.415778,27.7028571 35.3207983,27.7028571 C37.1653419,27.7028571 38.9191701,27.3980952 40.4613295,26.9104762 L41.9127736,31.4819048 L56.5481681,31.4819048 L56.5481681,21.8819048 L59.7232021,21.8819048 C67.4339988,21.8819048 72,17.92 72,11.2761905 C72,3.90095238 67.5549525,0.487619048 58.1205659,0.487619048 L58.1205659,0.487619048 Z M35.2905599,20.7542857 C34.1415,20.7542857 33.052917,20.5409524 32.115526,20.1752381 L35.2603215,10.2095238 L35.3207983,10.2095238 L38.405117,20.2057143 C37.4677261,20.5714286 36.4396198,20.7542857 35.2905599,20.7542857 Z M58.6950959,15.0247619 L56.5179297,15.0247619 L56.5179297,7.00952381 L58.6950959,7.00952381 C61.597984,7.00952381 63.8961038,7.9847619 63.8961038,10.9714286 C63.9263423,14.08 61.597984,15.0247619 58.6950959,15.0247619 L58.6950959,15.0247619 Z" id="Shape"></path>
            </g>
        </g>
    </g>
</svg>