<?xml version="1.0" encoding="utf-8"?>
<!-- Generator: Adobe Illustrator 21.0.2, SVG Export Plug-In . SVG Version: 6.00 Build 0)  -->
<svg version="1.1" xmlns="http://www.w3.org/2000/svg" xmlns:xlink="http://www.w3.org/1999/xlink" x="0px" y="0px"
	 viewBox="0 0 331.9 164.1" style="enable-background:new 0 0 331.9 164.1;" xml:space="preserve">
<style type="text/css">
	.st0{fill-rule:evenodd;clip-rule:evenodd;fill:#004990;}
	.st1{fill-rule:evenodd;clip-rule:evenodd;fill:#FFFFFF;}
</style>
<polyline class="st0" points="0,164.1 167.8,164.1 331.9,0 0,0 0,164.1 "/>
<path class="st1" d="M197,30.8l-32.7,0v77.6l-28.5-77.6h-28.3L83.2,95.8c-2.6-16.4-19.5-22-32.9-26.2c-8.8-2.8-18.1-7-18-11.6
	c0.1-3.8,5-7.3,14.8-6.7c6.5,0.3,12.3,0.9,23.9,6.4l11.4-19.8c-10.6-5.3-25.1-8.7-37-8.7h-0.1c-13.9,0-25.5,4.5-32.7,11.9
	c-5,5.2-7.7,11.8-7.8,19C4.6,70.1,8.3,77.2,16,82.9c6.5,4.8,14.8,7.9,22.2,10.2c9.1,2.8,16.5,5.2,16.4,10.5c0,1.9-0.8,3.7-2.1,5.1
	c-2.3,2.3-5.7,3.2-10.5,3.3c-9.3,0.2-16.1-1.3-27.1-7.7l-10.1,20c10.9,6.2,23.8,9.9,37,9.9l1.7,0c11.4-0.2,20.7-3.5,28.1-9.4
	c0.4-0.3,0.8-0.7,1.2-1l-3.3,8.7h29.7l5-15.1c5.2,1.7,11.1,2.7,17.4,2.7c6.1,0,11.9-1,17-2.6l4.8,15h48.4V101h10.5
	c25.5,0,40.6-13,40.6-34.8C242.9,42,228.2,30.8,197,30.8 M121.5,97.3c-3.8,0-7.4-0.7-10.5-1.9l10.4-32.7h0.2l10.2,32.8
	C128.7,96.7,125.3,97.3,121.5,97.3z M198.9,78.5h-7.2V52.2h7.2c9.6,0,17.2,3.2,17.2,13C216.2,75.4,208.5,78.5,198.9,78.5"/>
</svg>
