<?xml version="1.0" encoding="UTF-8"?>
<svg width="121px" height="30px" viewBox="0 0 121 30" version="1.1" xmlns="http://www.w3.org/2000/svg" xmlns:xlink="http://www.w3.org/1999/xlink">
    <!-- Generator: Sketch 47.1 (45422) - http://www.bohemiancoding.com/sketch -->
    <title>tata</title>
    <desc>Created with Sketch.</desc>
    <defs></defs>
    <g id="index" stroke="none" stroke-width="1" fill="none" fill-rule="evenodd">
        <g transform="translate(-221.000000, -2755.000000)" id="tata" fill-rule="nonzero" fill="#434054">
            <g transform="translate(221.000000, 2755.000000)">
                <polygon id="Shape" points="0 0 29 0 29 8.81496052 20.6804869 8.81496052 20.6804869 30 8.59634499 30 8.59634499 8.81496052 0 8.81496052"></polygon>
                <polygon id="Shape" points="43.889017 12.1212121 37.7218219 30 26 30 37.4963967 0 50.2265783 0 62 30 50.1340444 30"></polygon>
                <polygon id="Shape" points="59 0 88 0 88 8.81496052 79.6827281 8.81496052 79.6827281 30 67.5986812 30 67.5986812 8.81496052 59 8.81496052"></polygon>
                <polygon id="Shape" points="102.893329 12.1212121 96.7231361 30 85 30 96.5014335 0 109.229294 0 121 30 109.137039 30"></polygon>
            </g>
        </g>
    </g>
</svg>