<?xml version="1.0" encoding="UTF-8"?>
<svg width="153px" height="24px" viewBox="0 0 153 24" version="1.1" xmlns="http://www.w3.org/2000/svg" xmlns:xlink="http://www.w3.org/1999/xlink">
    <!-- Generator: Sketch 47.1 (45422) - http://www.bohemiancoding.com/sketch -->
    <title>vmware</title>
    <desc>Created with Sketch.</desc>
    <defs></defs>
    <g id="index" stroke="none" stroke-width="1" fill="none" fill-rule="evenodd">
        <g transform="translate(-221.000000, -2558.000000)" id="vmware" fill-rule="nonzero" fill="#434054">
            <g transform="translate(221.000000, 2558.000000)">
                <g id="g172" transform="translate(78.000000, 12.000000) scale(-1, 1) rotate(-180.000000) translate(-78.000000, -12.000000) translate(61.000000, 0.000000)">
                    <path d="M7.5504878,2.27586207 L0.739085366,21.2048276 C0.652012195,21.4665517 0.522439024,21.812069 0.522439024,22.1151724 C0.522439024,22.9355172 1.21695122,23.7144828 2.21207317,23.7144828 C3.08073171,23.7144828 3.64670732,23.1517241 3.90585366,22.3313793 L9.55006098,6.02068966 L15.2346951,22.3768966 C15.4938415,23.1527586 16.0152439,23.7155172 16.8787195,23.7155172 L17.054939,23.7155172 C17.9681707,23.7155172 18.5320732,23.1527586 18.7912195,22.3768966 L24.4292073,6.02068966 L30.162561,22.4172414 C30.3792073,23.1134483 30.8529268,23.7155172 31.7671951,23.7155172 C32.7208537,23.7155172 33.4164024,22.9831034 33.4164024,22.1586207 C33.4164024,21.8565517 33.2847561,21.512069 33.1997561,21.2482759 L26.3448171,2.27586207 C25.9944512,1.28482759 25.3030488,0.764482759 24.5204268,0.764482759 L24.3908537,0.764482759 C23.5221951,0.764482759 22.8701829,1.28482759 22.5643902,2.27586207 L16.969939,18.3610345 L11.3267683,2.27586207 C11.0230488,1.28482759 10.37,0.764482759 9.50445122,0.764482759 L9.41323171,0.764482759 C8.59121951,0.764482759 7.89981707,1.28482759 7.5504878,2.27586207" id="path174"></path>
                </g>
                <g id="g176" transform="translate(124.500000, 12.000000) scale(-1, 1) rotate(-180.000000) translate(-124.500000, -12.000000) translate(118.000000, 0.000000)">
                    <path d="M0.287421875,21.9310345 C0.287421875,22.8444828 1.01054688,23.6244828 1.90328125,23.6244828 C2.84476563,23.6244828 3.56585938,22.8868966 3.56585938,21.9310345 L3.56585938,18.09 C5.18273438,21.8203448 8.76890625,23.5810345 11.1454688,23.5810345 C12.1296094,23.5810345 12.7684375,22.8444828 12.7684375,21.8906897 C12.7684375,20.9782759 12.1753125,20.3306897 11.3160938,20.2003448 C7.05554688,19.68 3.566875,16.4244828 3.566875,9.95896552 L3.566875,2.35241379 C3.566875,1.44103448 2.88640625,0.662068966 1.95,0.662068966 C1.01257813,0.662068966 0.2884375,1.40275862 0.2884375,2.35241379 L0.287421875,21.9310345 L0.287421875,21.9310345 Z" id="path178"></path>
                </g>
                <g id="g180" transform="translate(142.000000, 12.000000) scale(-1, 1) rotate(-180.000000) translate(-142.000000, -12.000000) translate(131.000000, 0.000000)">
                    <path d="M11.935,0.206896552 C5.76125,0.206896552 0.720288462,4.89 0.720288462,11.757931 L0.720288462,11.8468966 C0.720288462,18.2431034 5.28528846,23.3958621 11.5002885,23.3958621 C18.1457692,23.3958621 21.9301923,18.0331034 21.9301923,12.147931 C21.9301923,11.2437931 21.1845192,10.5972414 20.36375,10.5972414 L4.11548077,10.5972414 C4.58932692,5.79206897 8.02048077,3.08793103 12.0238462,3.08793103 C14.8066346,3.08793103 16.8426923,4.16172414 18.4969231,5.66482759 C18.7581731,5.87689655 19.0617308,6.04862069 19.4551923,6.04862069 C20.2780769,6.04862069 20.9327885,5.40413793 20.9327885,4.62827586 C20.9327885,4.24344828 20.7593269,3.85551724 20.4071154,3.55862069 C18.2800962,1.54241379 15.7564423,0.206896552 11.935,0.206896552 L11.935,0.206896552 Z M18.5836538,13.0458621 C18.2346154,17.0855172 15.8865385,20.6027586 11.4093269,20.6027586 C7.49798077,20.6027586 4.54278846,17.3844828 4.11336538,13.0458621 L18.5836538,13.0458621 Z" id="path182"></path>
                </g>
                <g id="g184" transform="translate(104.500000, 12.000000) scale(-1, 1) rotate(-180.000000) translate(-104.500000, -12.000000) translate(94.000000, 0.000000)">
                    <path d="M0.29715,7.44827586 L0.29715,7.53517241 C0.29715,12.2482759 4.24935,14.76 9.9981,14.76 C12.89715,14.76 14.95935,14.3710345 16.9827,13.8051724 L16.9827,14.5872414 C16.9827,18.6062069 14.4732,20.6855172 10.21965,20.6855172 C7.9359,20.6855172 6.6066,20.3989655 4.935,19.6655172 C4.7187,19.5786207 4.49715,19.5341379 4.326,19.5341379 C3.53535,19.5341379 2.82975,20.1848276 2.82975,20.9617241 C2.82975,21.6517241 3.1353,22.0789655 3.75375,22.3489655 C5.9892,23.3048276 7.67445,23.6224138 10.57035,23.6224138 C13.77285,23.6224138 16.23195,22.8031034 17.89725,21.1582759 C19.43655,19.6448276 20.2272,17.4827586 20.2272,14.6265517 L20.2272,2.28724138 C20.2272,1.33862069 19.52475,0.644482759 18.5976,0.644482759 C17.6358,0.644482759 16.98375,1.33758621 16.98375,2.20137931 L16.98375,4.33448276 C15.40035,2.29758621 12.7638,0.484137931 8.77695,0.484137931 C4.56015,0.487241379 0.29715,2.86344828 0.29715,7.44827586 M17.02575,9.17896552 L17.02575,11.342069 C15.35415,11.8168966 13.1124,12.2937931 10.3488,12.2937931 C6.0963,12.2937931 3.72225,10.4751724 3.72225,7.66655172 L3.72225,7.58068966 C3.72225,4.77 6.35355,3.1262069 9.43005,3.1262069 C13.59855,3.1262069 17.02575,5.63586207 17.02575,9.17896552" id="path186"></path>
                </g>
                <g id="g188" transform="translate(30.000000, 12.000000) scale(-1, 1) rotate(-180.000000) translate(-30.000000, -12.000000) ">
                    <path d="M6.63802817,21.9310345 C5.89014085,23.5365517 4.0415493,24.2637931 2.31549296,23.5127586 C0.587323944,22.7606897 -0.0485915493,20.8841379 0.732042254,19.2775862 L7.97957746,3.85034483 C9.1193662,1.43275862 10.3204225,0.165517241 12.5746479,0.165517241 C14.9830986,0.165517241 16.0330986,1.54551724 17.171831,3.85034483 C17.171831,3.85034483 23.4929577,17.3296552 23.556338,17.4703448 C23.6207746,17.6131034 23.8235915,18.0486207 24.4669014,18.0444828 C25.0109155,18.0413793 25.4683099,17.6162069 25.4683099,17.0451724 L25.4683099,3.8637931 C25.4683099,1.83206897 26.618662,0.165517241 28.8327465,0.165517241 C31.0447183,0.165517241 32.240493,1.83206897 32.240493,3.8637931 L32.240493,14.6503448 C32.240493,16.7306897 33.7626761,18.0806897 35.8373239,18.0806897 C37.9119718,18.0806897 39.2926056,16.682069 39.2926056,14.6503448 L39.2926056,3.8637931 C39.2926056,1.83206897 40.4471831,0.165517241 42.6570423,0.165517241 C44.8690141,0.165517241 46.0711268,1.83206897 46.0711268,3.8637931 L46.0711268,14.6503448 C46.0711268,16.7306897 47.5869718,18.0806897 49.6626761,18.0806897 C51.7341549,18.0806897 53.1200704,16.682069 53.1200704,14.6503448 L53.1200704,3.8637931 C53.1200704,1.83206897 54.2735915,0.165517241 56.4855634,0.165517241 C58.6964789,0.165517241 59.8964789,1.83206897 59.8964789,3.8637931 L59.8964789,16.14 C59.8964789,20.6513793 56.1919014,23.8117241 51.7341549,23.8117241 C47.2816901,23.8117241 44.4929577,20.7951724 44.4929577,20.7951724 C43.0109155,22.6768966 40.9679577,23.8075862 37.5105634,23.8075862 C33.8619718,23.8075862 30.668662,20.7951724 30.668662,20.7951724 C29.1855634,22.6768966 26.6609155,23.8075862 24.5704225,23.8075862 C21.3369718,23.8075862 18.7690141,22.4151724 17.2024648,18.9072414 L12.5746479,8.22413793 L6.63802817,21.9310345 Z" id="path190"></path>
                </g>
            </g>
        </g>
    </g>
</svg>